<?xml version="1.0" encoding="utf-8"?>
<!-- Generator: Adobe Illustrator 21.0.0, SVG Export Plug-In . SVG Version: 6.00 Build 0)  -->
<svg version="1.1" id="Layer_1" xmlns="http://www.w3.org/2000/svg" xmlns:xlink="http://www.w3.org/1999/xlink" x="0px" y="0px"
	 viewBox="0 0 610 610" style="enable-background:new 0 0 610 610;" xml:space="preserve">
<style type="text/css">
	.st0{fill:#E1E4E8;}
	.st1{fill:#262626;}
</style>
<path class="st0" d="M563.2,309c0,141.5-114.7,256.2-256.2,256.2C165.5,565.2,50.8,450.5,50.8,309S165.5,52.8,307,52.8
	C448.5,52.8,563.2,167.5,563.2,309"/>
<path class="st1" d="M334.3,563.8c14.9-1.6,29.5-4.4,43.5-8.5c3.4-3.3,5.6-7.8,5.6-12.9c0-0.4-0.3-0.7-0.7-0.7h-3.7l-1.1-5.1h3.6
	c0.4,0,0.7-0.4,0.6-0.8l-2.9-12.6c-0.1-0.3-0.3-0.5-0.6-0.5h-3.8l-1.1-5.1h3.5c0.4,0,0.7-0.4,0.6-0.8l-2.9-12.6
	c-0.1-0.3-0.3-0.5-0.6-0.5h-3.7l-1.1-5.1h3.4c0.4,0,0.7-0.4,0.6-0.8l-2.9-12.6c-0.1-0.3-0.3-0.5-0.6-0.5h-3.6l-1.1-5.1h3.2
	c0.4,0,0.7-0.4,0.6-0.8l-2.9-12.6c-0.1-0.3-0.3-0.5-0.6-0.5h-3.4l-1.1-5.1h3.1c0.4,0,0.7-0.4,0.6-0.8l-2.9-12.6
	c-0.1-0.3-0.3-0.5-0.6-0.5H358l-1.1-5.1h3c0.4,0,0.7-0.4,0.6-0.8l-2.9-12.6c-0.1-0.3-0.3-0.5-0.6-0.5h-3.2l-1.1-5.1h2.9
	c0.4,0,0.7-0.4,0.6-0.8l-2.9-12.6c-0.1-0.3-0.3-0.5-0.6-0.5h-3.1l-1.1-5.1h2.7c0.4,0,0.7-0.4,0.6-0.8l-2.9-12.6
	c-0.1-0.3-0.3-0.5-0.6-0.5h-3l-1.1-5.1h2.6c0.4,0,0.7-0.4,0.6-0.8l-2.9-12.6c-0.1-0.3-0.3-0.5-0.6-0.5h-2.8l-1.1-5.1h2.5
	c0.4,0,0.7-0.4,0.6-0.8l-2.9-12.6c-0.1-0.3-0.3-0.5-0.6-0.5h-2.7l-1.1-5.1h2.4c0.4,0,0.7-0.4,0.6-0.8l-2.9-12.6
	c-0.1-0.3-0.3-0.5-0.6-0.5h-2.6l-1.1-5.1h2.3c0.4,0,0.7-0.4,0.6-0.8l-0.9-4h38.7c0.2,0,0.4-0.3,0.3-0.6l-27.1-36.4v-10.2h-0.3
	c0.1,0,0.2-0.1,0.3-0.1l18.6-28.7c0.1-0.2,0-0.5-0.3-0.5h-28.3c6.6-7,10.7-16.4,10.7-26.8c0-2.8-0.3-5.6-0.9-8.2
	c-0.1-0.3-0.5-0.3-0.6,0c-2.7,9.7-9.1,17.9-17.6,22.9c5.9-5.4,9.6-13.2,9.6-21.8c0-15.6-12.1-28.4-27.5-29.5
	c6.2-1,10.8-6.4,10.8-12.8c0-7.2-9.8-24.2-13-24.2c-3.2,0-13,17-13,24.2c0,6.4,4.7,11.8,10.8,12.8c-15.4,1.1-27.5,13.9-27.5,29.5
	c0,8.6,3.7,16.4,9.6,21.8c-8.5-5.1-14.8-13.2-17.6-22.9c-0.1-0.3-0.5-0.3-0.6,0c-0.6,2.7-0.9,5.4-0.9,8.2c0,10.4,4.1,19.8,10.7,26.8
	h-28.3c-0.2,0-0.4,0.3-0.3,0.5l18.6,28.7c0.1,0.1,0.2,0.1,0.3,0.1h-0.3v10.2l-27.1,36.4c-0.1,0.3,0,0.6,0.3,0.6h38.7l-0.9,4
	c-0.1,0.4,0.2,0.8,0.6,0.8h2.1l-1.1,5.1h-2.5c-0.3,0-0.6,0.2-0.6,0.5l-2.9,12.6c-0.1,0.4,0.2,0.8,0.6,0.8h2.3l-1.1,5.1h-2.6
	c-0.3,0-0.6,0.2-0.6,0.5l-2.9,12.6c-0.1,0.4,0.2,0.8,0.6,0.8h2.4l-1.1,5.1H270c-0.3,0-0.6,0.2-0.6,0.5l-2.9,12.6
	c-0.1,0.4,0.2,0.8,0.6,0.8h2.5l-1.1,5.1h-2.8c-0.3,0-0.6,0.2-0.6,0.5l-2.9,12.6c-0.1,0.4,0.2,0.8,0.6,0.8h2.6l-1.1,5.1h-3
	c-0.3,0-0.6,0.2-0.6,0.5l-2.9,12.6c-0.1,0.4,0.2,0.8,0.6,0.8h2.8l-1.1,5.1H257c-0.3,0-0.6,0.2-0.6,0.5l-2.9,12.6
	c-0.1,0.4,0.2,0.8,0.6,0.8h2.9l-1.1,5.1h-3.2c-0.3,0-0.6,0.2-0.6,0.5l-2.9,12.6c-0.1,0.4,0.2,0.8,0.6,0.8h3l-1.1,5.1h-3.3
	c-0.3,0-0.6,0.2-0.6,0.5l-2.9,12.6c-0.1,0.4,0.2,0.8,0.6,0.8h3.1l-1.1,5.1H244c-0.3,0-0.6,0.2-0.6,0.5l-2.9,12.6
	c-0.1,0.4,0.2,0.8,0.6,0.8h3.2l-1.1,5.1h-3.6c-0.3,0-0.6,0.2-0.6,0.5l-2.9,12.6c-0.1,0.4,0.2,0.8,0.6,0.8h3.4l-1.1,5.1h-3.7
	c-0.3,0-0.6,0.2-0.6,0.5l-2.9,12.6c-0.1,0.4,0.2,0.8,0.6,0.8h3.5l-1.1,5.1h-3.6c-0.4,0-0.7,0.3-0.7,0.7c0,5.1,2.1,9.7,5.6,12.9
	c14,4,28.6,6.9,43.5,8.5c7.6,0.7,15.6,1.2,22.8,1.4c1.5,0,3,0.1,4.6,0.1c1.5,0,3,0,4.6-0.1C318.8,565,326.7,564.4,334.3,563.8"/>
</svg>
