<?xml version="1.0" encoding="utf-8"?>
<!-- Generator: Adobe Illustrator 21.0.0, SVG Export Plug-In . SVG Version: 6.00 Build 0)  -->
<svg version="1.1" id="Layer_1" xmlns="http://www.w3.org/2000/svg" xmlns:xlink="http://www.w3.org/1999/xlink" x="0px" y="0px"
	 viewBox="0 0 610 610" style="enable-background:new 0 0 610 610;" xml:space="preserve">
<style type="text/css">
	.st0{fill:#E1E4E8;}
</style>
<g>
	<path class="st0" d="M147.5,51.2c0.5,0.8,0.9,1.5,1.4,2.1c0.4,0.6,0.8,1.2,1.2,1.8c0.4,0.5,0.8,1.1,1.2,1.6c0.4,0.5,0.8,1,1.2,1.5
		c0.1,0.1,0.2,0.2,0.3,0.4L135.7,52l-4.2,2.7l12.5,19.4l4.6-3l-4.2-6.5c-0.3-0.5-0.6-0.9-0.8-1.3c-0.3-0.4-0.5-0.7-0.8-1.1
		c-0.3-0.4-0.6-0.8-0.9-1.2c-0.4-0.5-0.8-1-1.2-1.5c-0.1-0.1-0.1-0.2-0.2-0.3l16.8,6.3l4.3-2.8L149,43.4l-4.6,3L147.5,51.2z"/>
	<path class="st0" d="M187.7,25.1c-1.4-0.1-2.7,0.1-4.1,0.7l-9.5,4.1l9.2,21.2l4.9-2.1l-3.2-7.4l2.6-1.1l7.4,5.6l5.9-2.5l-8.3-6.1
		c0.1-0.1,0.2-0.2,0.3-0.3c0.8-1.1,1.3-2.3,1.5-3.6c0.2-1.3,0-2.7-0.6-4c-0.6-1.3-1.4-2.3-2.4-3.1C190.3,25.7,189.1,25.2,187.7,25.1
		z M188.8,31.9c0.2,0.5,0.3,1.1,0.3,1.6c0,0.5-0.2,1-0.5,1.4c-0.3,0.4-0.7,0.7-1.2,0.9l-4.2,1.8l-2.4-5.5l3.7-1.6
		c0.6-0.3,1.2-0.4,1.8-0.4c0.5,0,1,0.2,1.5,0.5C188.3,31,188.6,31.4,188.8,31.9z"/>
	<path class="st0" d="M229.5,9.9c-1.1,0-2.2,0.2-3.2,0.4c-1.7,0.5-3.2,1.2-4.5,2.2c-1.3,1-2.3,2.1-3.1,3.4c-0.8,1.3-1.2,2.8-1.5,4.3
		c-0.2,1.6-0.1,3.2,0.4,4.8c0.5,1.7,1.2,3.2,2.1,4.4c1,1.3,2.1,2.3,3.4,3c1.3,0.7,2.8,1.2,4.3,1.4c1.6,0.2,3.2,0,4.9-0.4
		c1.1-0.3,2.1-0.7,3.1-1.3c1-0.6,1.9-1.2,2.6-1.9c0.7-0.7,1.3-1.4,1.7-2.2l-3.7-3.4c-0.3,0.5-0.6,1-1.1,1.5
		c-0.4,0.5-0.9,0.9-1.5,1.3c-0.6,0.4-1.2,0.6-1.9,0.8c-1,0.3-1.9,0.4-2.8,0.3c-0.9-0.1-1.7-0.3-2.4-0.7c-0.7-0.4-1.4-1-1.9-1.7
		c-0.5-0.7-0.9-1.5-1.2-2.5c-0.3-1-0.4-1.9-0.3-2.8c0.1-0.9,0.3-1.7,0.8-2.4c0.4-0.7,0.9-1.3,1.6-1.8c0.7-0.5,1.4-0.9,2.3-1.1
		c0.7-0.2,1.3-0.3,2-0.2c0.6,0,1.3,0.1,1.9,0.4c0.6,0.2,1.2,0.5,1.8,0.8l2.3-4.7c-0.8-0.6-1.8-1-2.8-1.3
		C231.7,10.1,230.6,9.9,229.5,9.9z"/>
	<path class="st0" d="M303.9,0.4C302.8,0.1,301.5,0,300,0c-1.1,0-2.2,0.2-3.3,0.6c-1,0.4-2,0.9-2.8,1.5c-0.8,0.6-1.4,1.4-1.9,2.3
		c-0.5,0.9-0.7,1.8-0.7,2.9c0,1,0.2,1.8,0.5,2.6c0.3,0.8,0.8,1.5,1.4,2.1c0.6,0.6,1.4,1.1,2.4,1.5c1,0.4,2.1,0.7,3.3,1
		c0.5,0.1,0.9,0.2,1.4,0.3c0.4,0.1,0.9,0.3,1.3,0.4c0.4,0.2,0.7,0.3,1,0.5c0.3,0.2,0.5,0.4,0.7,0.7c0.2,0.3,0.3,0.6,0.3,0.9
		c0,0.4-0.1,0.8-0.4,1.1c-0.3,0.3-0.6,0.5-1.1,0.7c-0.5,0.2-1,0.2-1.6,0.3c-1.2,0-2.3-0.2-3.5-0.7c-1.1-0.5-2.2-1.5-3.4-2.9
		l-3.3,3.9c0.8,0.9,1.6,1.7,2.6,2.4c1,0.7,2,1.2,3.3,1.5c1.2,0.3,2.6,0.5,4.1,0.5c1.8,0,3.3-0.3,4.7-0.9c1.3-0.6,2.4-1.5,3.2-2.6
		c0.8-1.1,1.1-2.5,1.1-4.1c0-1-0.2-1.9-0.6-2.7c-0.4-0.8-1-1.4-1.7-2c-0.7-0.6-1.6-1-2.6-1.4c-1-0.4-2.1-0.7-3.3-0.9
		c-0.5-0.1-1-0.2-1.5-0.3c-0.5-0.1-0.9-0.3-1.3-0.5c-0.4-0.2-0.7-0.4-0.9-0.7c-0.2-0.3-0.3-0.6-0.3-1c0-0.4,0.1-0.8,0.4-1.1
		c0.3-0.3,0.6-0.5,1.1-0.7s1-0.3,1.7-0.3c0.6,0,1.3,0.1,1.9,0.3c0.6,0.2,1.2,0.5,1.7,0.8c0.5,0.4,1.1,0.8,1.5,1.4l3.4-3.4
		c-0.6-0.8-1.2-1.5-2-2.1C305.9,1.2,305,0.7,303.9,0.4z"/>
	<polygon class="st0" points="333.7,1.8 333,6.7 339.8,7.5 337.5,25.5 343.1,26.3 345.4,8.3 352.4,9.2 353,4.3 	"/>
	<path class="st0" d="M392.4,13.5l-3.8,13.4c-0.2,0.8-0.6,1.5-1.2,2c-0.6,0.5-1.2,0.9-1.9,1.1c-0.7,0.2-1.5,0.2-2.3-0.1
		c-0.8-0.2-1.4-0.6-1.9-1.1c-0.5-0.5-0.8-1.2-1-1.9c-0.2-0.7-0.1-1.5,0.1-2.3l3.8-13.4l-5.5-1.6l-3.9,13.7c-0.5,1.7-0.5,3.3-0.1,4.9
		c0.4,1.5,1.3,2.9,2.5,4.1c1.2,1.2,2.8,2,4.6,2.5c1.8,0.5,3.6,0.6,5.2,0.3c1.7-0.3,3.1-1,4.3-2.1c1.2-1.1,2-2.5,2.5-4.1l3.9-13.7
		L392.4,13.5z"/>
	<path class="st0" d="M430.5,43.8c1.3-0.1,2.5-0.6,3.6-1.4c1.1-0.8,2-1.9,2.6-3.2c0.6-1.3,0.8-2.6,0.7-3.9c-0.1-1.3-0.6-2.5-1.3-3.6
		c-0.8-1.1-1.8-1.9-3.1-2.5l-9-4.2l-9.7,21l5.1,2.3l3.2-7l4,1.8C427.9,43.7,429.2,43.9,430.5,43.8z M426.9,31.8l3.3,1.5
		c0.4,0.2,0.8,0.5,1.1,0.9c0.3,0.4,0.4,0.8,0.5,1.2c0.1,0.5,0,0.9-0.3,1.5c-0.2,0.5-0.5,0.9-0.9,1.2c-0.4,0.3-0.8,0.4-1.3,0.5
		c-0.5,0.1-0.9,0-1.3-0.2l-3.3-1.5L426.9,31.8z"/>
	<path class="st0" d="M466.5,47.4l-20.2,14.5l4.7,3l3.8-2.8l7.1,4.6l-1,4.6l4.8,3.1l4.9-24.3L466.5,47.4z M463.9,57.5
		c-0.1,0.5-0.3,1.1-0.4,1.5l-0.7,3.2l-4.5-2.9l2.6-1.9c0.4-0.4,0.9-0.7,1.3-1c0.4-0.3,0.9-0.7,1.3-1c0.4-0.3,0.7-0.6,1.1-0.9
		c-0.1,0.5-0.3,0.9-0.4,1.4C464.2,56.4,464,57,463.9,57.5z"/>
	<path class="st0" d="M99.3,523.5c0.9-0.4,1.7-1,2.4-1.7c0.7-0.8,1.3-1.6,1.7-2.5c0.4-0.9,0.5-1.8,0.5-2.7c0-0.9-0.2-1.8-0.6-2.7
		c-0.4-0.9-1-1.7-1.7-2.4c-0.8-0.7-1.6-1.3-2.5-1.7c-0.9-0.4-1.8-0.5-2.7-0.5c-0.9,0-1.8,0.2-2.7,0.6c-0.9,0.4-1.7,1-2.4,1.7
		c-0.7,0.8-1.3,1.6-1.7,2.5c-0.4,0.9-0.5,1.8-0.5,2.7c0,0.9,0.2,1.8,0.6,2.7c0.4,0.9,1,1.7,1.7,2.5c0.8,0.7,1.6,1.3,2.5,1.6
		c0.9,0.4,1.8,0.5,2.7,0.5C97.5,524.1,98.5,523.9,99.3,523.5z M92.8,518.4c-0.2-0.5-0.3-1-0.3-1.5c0-0.5,0.1-1,0.3-1.5
		c0.2-0.5,0.5-0.9,1-1.4c0.4-0.4,0.9-0.8,1.3-1c0.5-0.2,1-0.4,1.5-0.4c0.5,0,1,0.1,1.5,0.2c0.5,0.2,0.9,0.5,1.3,0.8
		c0.4,0.4,0.7,0.8,0.9,1.3c0.2,0.5,0.3,1,0.3,1.5c0,0.5-0.1,1-0.3,1.5c-0.2,0.5-0.5,0.9-0.9,1.4c-0.4,0.4-0.9,0.8-1.3,1
		c-0.5,0.2-1,0.4-1.5,0.4c-0.5,0-1-0.1-1.5-0.2c-0.5-0.2-0.9-0.5-1.3-0.8C93.3,519.3,93,518.8,92.8,518.4z"/>
	<polygon class="st0" points="120.6,536.4 116.4,533 118.2,530.8 123.1,534.7 125,532.4 120.1,528.4 120.1,528.4 117.4,526.2 
		108.5,537.2 111.2,539.4 114.6,535.2 118.8,538.6 	"/>
	<path class="st0" d="M153,556.5c0.5-0.1,1-0.2,1.5-0.1c0.5,0.1,1,0.3,1.5,0.5c0.4,0.2,0.7,0.5,1,0.8c0.3,0.3,0.5,0.6,0.6,1
		c0.2,0.4,0.3,0.7,0.4,1.1l3-1c-0.1-0.6-0.3-1.2-0.6-1.8c-0.3-0.6-0.7-1.1-1.2-1.6c-0.5-0.5-1-0.9-1.6-1.2c-0.9-0.5-1.9-0.9-2.8-1.1
		c-1-0.2-1.9-0.1-2.8,0.1c-0.9,0.2-1.8,0.6-2.5,1.2c-0.8,0.6-1.4,1.3-2,2.2c-0.6,0.9-0.9,1.9-1,2.8c-0.2,1-0.1,1.9,0.1,2.8
		c0.2,0.9,0.6,1.7,1.2,2.5c0.6,0.8,1.3,1.4,2.3,2c0.6,0.4,1.2,0.6,1.9,0.8c0.7,0.2,1.3,0.3,2,0.3c0.6,0,1.2,0,1.7-0.2l-0.1-3.1
		c-0.4,0.1-0.7,0.2-1.1,0.2c-0.4,0-0.8,0-1.2-0.1c-0.4-0.1-0.8-0.3-1.2-0.5c-0.5-0.3-1-0.7-1.3-1.1s-0.6-0.9-0.7-1.4
		c-0.1-0.5-0.1-1-0.1-1.6c0.1-0.5,0.3-1.1,0.6-1.6c0.3-0.5,0.7-1,1.1-1.3C152.1,556.9,152.5,556.6,153,556.5z"/>
	<path class="st0" d="M184.5,573c0.1-1-0.1-1.9-0.4-2.8c-0.3-0.9-0.8-1.7-1.4-2.4c-0.6-0.7-1.5-1.3-2.4-1.7c-1-0.5-1.9-0.7-2.9-0.8
		c-1-0.1-1.9,0.1-2.8,0.4c-0.9,0.3-1.7,0.8-2.4,1.4c-0.7,0.6-1.3,1.5-1.7,2.4c-0.5,1-0.7,1.9-0.8,2.9c-0.1,1,0.1,1.9,0.4,2.8
		c0.3,0.9,0.8,1.7,1.4,2.4c0.6,0.7,1.5,1.3,2.4,1.8c1,0.4,1.9,0.7,2.9,0.8c1,0.1,1.9-0.1,2.8-0.4c0.9-0.3,1.7-0.8,2.4-1.5
		c0.7-0.7,1.3-1.5,1.7-2.4C184.1,574.9,184.4,574,184.5,573z M179.6,575.8c-0.4,0.4-0.8,0.6-1.3,0.8c-0.5,0.2-1,0.3-1.5,0.3
		c-0.5,0-1-0.1-1.5-0.4c-0.5-0.2-0.9-0.5-1.2-0.9c-0.3-0.4-0.6-0.8-0.7-1.3c-0.2-0.5-0.2-1-0.2-1.5c0.1-0.5,0.2-1.1,0.5-1.6
		c0.3-0.5,0.6-1,0.9-1.4c0.4-0.4,0.8-0.7,1.3-0.8c0.5-0.2,1-0.3,1.5-0.3c0.5,0,1,0.1,1.5,0.4c0.5,0.2,0.9,0.5,1.2,0.9
		c0.3,0.4,0.6,0.8,0.7,1.3c0.2,0.5,0.2,1,0.2,1.5c0,0.5-0.2,1.1-0.4,1.6C180.3,574.9,180,575.4,179.6,575.8z"/>
	<path class="st0" d="M210.5,578.8l-6.1,4.8l-1.6-7.6l-2.9-1l-4.8,13.3l3.1,1.1l1.5-4.2c0.4-1.2,0.8-2.3,1.1-3.2
		c0.1-0.2,0.1-0.4,0.2-0.7l1.3,5.8l1.3,0.4l4.8-3.7c-0.1,0.3-0.2,0.5-0.4,0.8c-0.4,0.9-0.8,1.9-1.2,3.1l-1.5,4.2l3.1,1.1l4.8-13.3
		L210.5,578.8z"/>
	<path class="st0" d="M237.1,588.8c-0.2-0.8-0.6-1.5-1.2-2c-0.6-0.6-1.3-1-2.2-1.2l-5.9-1.5l-3.5,13.7l3.3,0.8l1.2-4.6l2.6,0.7
		c0.9,0.2,1.7,0.2,2.5,0c0.8-0.2,1.5-0.6,2-1.2c0.6-0.6,1-1.3,1.2-2.2C237.3,590.4,237.3,589.6,237.1,588.8z M233.7,589.5
		c0.1,0.3,0.1,0.6,0,0.9c-0.1,0.3-0.2,0.6-0.4,0.8c-0.2,0.2-0.4,0.4-0.7,0.4c-0.3,0.1-0.6,0.1-0.8,0l-2.2-0.6l0.8-3.3l2.2,0.6
		c0.3,0.1,0.5,0.2,0.7,0.4C233.5,589,233.6,589.3,233.7,589.5z"/>
	<polygon class="st0" points="252.3,589.7 250,603.6 259.6,605.2 260.1,602.2 253.9,601.2 255.7,590.2 	"/>
	<polygon class="st0" points="274.9,607.1 285,607.9 285.2,605 278.5,604.4 278.7,601.6 284.3,602 284.5,599.2 278.9,598.8 
		279.2,596.2 285.7,596.7 285.9,593.8 276.1,593 	"/>
	<polygon class="st0" points="299.6,597.5 303.8,597.4 304,608.5 307.4,608.4 307.3,597.3 311.6,597.3 311.5,594.2 299.6,594.4 	"/>
	<polygon class="st0" points="326.9,607.7 336.9,606.8 336.7,603.9 330,604.5 329.7,601.6 335.3,601.2 335.1,598.4 329.5,598.9 
		329.3,596.2 335.8,595.7 335.5,592.8 325.7,593.6 	"/>
	<path class="st0" d="M376.1,592.9c-0.1,0.6-0.1,1.1-0.2,1.5c0,0.4-0.1,0.8-0.1,1.2c0,0,0,0,0,0.1c-0.1-0.2-0.2-0.4-0.3-0.5
		c-0.1-0.2-0.3-0.5-0.5-0.8c-0.2-0.3-0.4-0.6-0.7-1L370,587l-3.5,0.8l8.8,12.4l2.8-0.7l2.2-15.1l-3.4,0.8L376.1,592.9z"/>
	<polygon class="st0" points="394,583.4 396.3,582.7 399,590.6 396.7,591.4 397.6,594.1 405.4,591.5 404.5,588.8 402.2,589.5 
		399.6,581.6 401.8,580.8 400.9,578.1 393.1,580.7 	"/>
	<path class="st0" d="M422.5,569.5c-0.7,0.1-1.3,0.3-1.9,0.5c-1,0.4-1.8,1-2.5,1.7c-0.7,0.7-1.2,1.5-1.6,2.3
		c-0.4,0.9-0.5,1.8-0.5,2.7c0,1,0.2,1.9,0.6,2.9c0.4,1,1,1.8,1.7,2.5c0.7,0.7,1.5,1.2,2.3,1.5c0.9,0.3,1.8,0.5,2.7,0.5
		c1,0,1.9-0.2,2.9-0.7c0.6-0.3,1.2-0.6,1.8-1c0.6-0.4,1-0.9,1.4-1.4c0.4-0.5,0.7-1,0.8-1.5l-2.6-1.8c-0.1,0.3-0.3,0.7-0.5,1
		c-0.2,0.3-0.5,0.6-0.8,0.9c-0.3,0.3-0.7,0.5-1.1,0.7c-0.6,0.3-1.1,0.4-1.7,0.4c-0.6,0-1.1,0-1.5-0.2c-0.5-0.2-0.9-0.5-1.3-0.9
		c-0.4-0.4-0.7-0.9-0.9-1.4c-0.3-0.6-0.4-1.1-0.4-1.7c0-0.6,0.1-1.1,0.3-1.5c0.2-0.5,0.5-0.9,0.8-1.3c0.4-0.4,0.8-0.7,1.3-0.9
		c0.4-0.2,0.8-0.3,1.2-0.3c0.4,0,0.8,0,1.2,0.1c0.4,0.1,0.8,0.2,1.1,0.4l1-3c-0.6-0.3-1.2-0.5-1.8-0.6
		C423.8,569.4,423.2,569.4,422.5,569.5z"/>
	<polygon class="st0" points="438.4,565.3 442.1,563.4 447.4,573.1 450.4,571.5 445.2,561.7 449,559.7 447.5,557 437,562.7 	"/>
	<path class="st0" d="M469.9,545.2c-0.9-0.2-1.8-0.2-2.8,0c-0.9,0.2-1.9,0.6-2.7,1.2c-0.9,0.6-1.6,1.3-2.1,2.1
		c-0.5,0.8-0.9,1.6-1.1,2.6c-0.2,0.9-0.2,1.8,0,2.8c0.2,0.9,0.6,1.9,1.2,2.7c0.6,0.9,1.3,1.6,2.1,2.1c0.8,0.5,1.6,0.9,2.6,1.1
		c0.9,0.2,1.8,0.2,2.8,0c0.9-0.2,1.9-0.6,2.8-1.2c0.9-0.6,1.6-1.3,2.1-2.1c0.5-0.8,0.9-1.6,1.1-2.6c0.2-0.9,0.2-1.8,0-2.8
		c-0.2-0.9-0.6-1.9-1.2-2.7c-0.6-0.9-1.3-1.6-2.1-2.2C471.6,545.7,470.8,545.4,469.9,545.2z M471.6,550.4c0.3,0.5,0.5,1,0.7,1.5
		c0.1,0.5,0.1,1,0.1,1.5c-0.1,0.5-0.3,1-0.5,1.4c-0.3,0.4-0.6,0.8-1.1,1.1c-0.5,0.3-0.9,0.5-1.4,0.6c-0.5,0.1-1,0.1-1.5,0
		c-0.5-0.1-1-0.3-1.4-0.7c-0.4-0.3-0.8-0.7-1.1-1.2c-0.3-0.5-0.6-1-0.7-1.5c-0.1-0.5-0.1-1,0-1.5c0.1-0.5,0.3-1,0.5-1.4
		c0.3-0.4,0.6-0.8,1.1-1.1c0.5-0.3,0.9-0.5,1.4-0.6c0.5-0.1,1-0.1,1.5,0.1c0.5,0.1,1,0.3,1.4,0.7
		C470.8,549.5,471.2,549.9,471.6,550.4z"/>
	<path class="st0" d="M489.4,529c-0.8,0.2-1.6,0.5-2.3,1.1l-5,4l8.8,11.1l2.6-2l-3.1-3.9l1.4-1.1l5.3,2.1l3.1-2.4l-5.9-2.3
		c0-0.1,0.1-0.2,0.1-0.2c0.3-0.8,0.4-1.6,0.3-2.4c-0.1-0.8-0.5-1.6-1-2.3c-0.5-0.7-1.2-1.1-1.9-1.4C491,528.9,490.2,528.9,489.4,529
		z M486.5,534.3l1.9-1.6c0.3-0.3,0.7-0.4,1-0.5c0.3-0.1,0.6-0.1,0.9,0.1c0.3,0.1,0.6,0.3,0.8,0.6c0.2,0.3,0.4,0.6,0.4,0.9
		c0.1,0.3,0,0.6-0.1,0.9c-0.1,0.3-0.3,0.5-0.6,0.8l-2.2,1.7L486.5,534.3z"/>
	<polygon class="st0" points="507.4,512.2 508.5,517.9 502.7,516.7 499.8,519.4 509.3,521.3 513.6,525.8 516.1,523.5 511.8,518.9 
		510.1,509.6 	"/>
</g>
</svg>
