<?xml version="1.0" encoding="utf-8"?>
<!-- Generator: Adobe Illustrator 21.0.0, SVG Export Plug-In . SVG Version: 6.00 Build 0)  -->
<svg version="1.1" id="Layer_1" xmlns="http://www.w3.org/2000/svg" xmlns:xlink="http://www.w3.org/1999/xlink" x="0px" y="0px"
	 viewBox="0 0 600 600" style="enable-background:new 0 0 600 600;" xml:space="preserve">
<style type="text/css">
	.st0{fill:#FF263B;}
	.st1{fill:#262626;}
</style>
<path class="st0" d="M600,300c0,165.7-134.3,300-300,300C134.3,600,0,465.7,0,300S134.3,0,300,0C465.7,0,600,134.3,600,300"/>
<path class="st1" d="M332,598.3c17.5-1.9,34.5-5.2,50.9-9.9c4-3.8,6.5-9.2,6.5-15.1c0-0.4-0.3-0.8-0.8-0.8h-4.3l-1.3-6h4.2
	c0.5,0,0.9-0.5,0.8-0.9l-3.4-14.7c-0.1-0.4-0.4-0.6-0.8-0.6h-4.5l-1.3-6h4.1c0.5,0,0.9-0.5,0.8-0.9l-3.4-14.7
	c-0.1-0.3-0.4-0.6-0.8-0.6h-4.3l-1.3-6h3.9c0.5,0,0.9-0.5,0.8-0.9l-3.4-14.7c-0.1-0.3-0.4-0.6-0.8-0.6h-4.2l-1.3-6h3.8
	c0.5,0,0.9-0.5,0.8-0.9l-3.4-14.7c-0.1-0.3-0.4-0.6-0.8-0.6h-4l-1.3-6h3.6c0.5,0,0.9-0.5,0.8-0.9l-3.4-14.7
	c-0.1-0.3-0.4-0.6-0.8-0.6h-3.9l-1.3-6h3.5c0.5,0,0.9-0.5,0.8-0.9l-3.4-14.7c-0.1-0.4-0.4-0.6-0.8-0.6h-3.7l-1.3-6h3.4
	c0.5,0,0.9-0.5,0.8-0.9l-3.4-14.7c-0.1-0.3-0.4-0.6-0.8-0.6h-3.6l-1.3-6h3.2c0.5,0,0.9-0.5,0.8-0.9l-3.4-14.7
	c-0.1-0.3-0.4-0.6-0.8-0.6h-3.5l-1.3-6h3.1c0.5,0,0.9-0.5,0.8-0.9l-3.4-14.7c-0.1-0.3-0.4-0.6-0.8-0.6h-3.3l-1.3-6h2.9
	c0.5,0,0.9-0.5,0.8-0.9l-3.4-14.7c-0.1-0.3-0.4-0.6-0.8-0.6H335l-1.3-6h2.8c0.5,0,0.9-0.5,0.8-0.9l-3.4-14.7
	c-0.1-0.4-0.4-0.6-0.8-0.6h-3l-1.3-6h2.6c0.5,0,0.9-0.5,0.8-0.9l-1.1-4.6h45.3c0.3,0,0.5-0.4,0.3-0.7L345,272.7v-11.9h-0.3
	c0.1,0,0.2-0.1,0.3-0.2l21.8-33.6c0.2-0.2,0-0.6-0.3-0.6h-33.2c7.7-8.2,12.5-19.2,12.5-31.4c0-3.3-0.4-6.5-1.1-9.6
	c-0.1-0.4-0.6-0.4-0.7,0c-3.2,11.4-10.7,20.9-20.6,26.9c6.9-6.3,11.2-15.4,11.2-25.5c0-18.3-14.2-33.3-32.2-34.6
	c7.2-1.2,12.7-7.4,12.7-15c0-8.4-11.4-28.4-15.2-28.4c-3.8,0-15.2,19.9-15.2,28.4c0,7.5,5.5,13.8,12.7,15
	c-18,1.3-32.2,16.3-32.2,34.6c0,10.1,4.3,19.2,11.2,25.5c-9.9-5.9-17.4-15.5-20.6-26.9c-0.1-0.4-0.6-0.4-0.7,0
	c-0.7,3.1-1.1,6.3-1.1,9.6c0,12.2,4.8,23.2,12.5,31.4h-33.2c-0.3,0-0.5,0.3-0.3,0.6l21.8,33.6c0.1,0.1,0.2,0.2,0.3,0.2H255v11.9
	l-31.7,42.6c-0.2,0.3,0,0.7,0.3,0.7h45.3l-1.1,4.6c-0.1,0.5,0.3,0.9,0.8,0.9h2.5l-1.3,6h-2.9c-0.4,0-0.7,0.2-0.8,0.6l-3.4,14.7
	c-0.1,0.5,0.3,0.9,0.8,0.9h2.7l-1.3,6h-3c-0.4,0-0.7,0.2-0.8,0.6l-3.4,14.7c-0.1,0.5,0.3,0.9,0.8,0.9h2.8l-1.3,6h-3.2
	c-0.4,0-0.7,0.2-0.8,0.6l-3.4,14.7c-0.1,0.5,0.3,0.9,0.8,0.9h2.9l-1.3,6h-3.3c-0.4,0-0.7,0.2-0.8,0.6l-3.4,14.7
	c-0.1,0.5,0.3,0.9,0.8,0.9h3.1l-1.3,6h-3.5c-0.4,0-0.7,0.2-0.8,0.6l-3.4,14.7c-0.1,0.5,0.3,0.9,0.8,0.9h3.2l-1.3,6h-3.6
	c-0.4,0-0.7,0.2-0.8,0.6l-3.4,14.7c-0.1,0.5,0.3,0.9,0.8,0.9h3.4l-1.3,6h-3.8c-0.4,0-0.7,0.2-0.8,0.6l-3.4,14.7
	c-0.1,0.5,0.3,0.9,0.8,0.9h3.5l-1.3,6h-3.9c-0.4,0-0.7,0.2-0.8,0.6l-3.4,14.7c-0.1,0.5,0.3,0.9,0.8,0.9h3.7l-1.3,6h-4
	c-0.4,0-0.7,0.2-0.8,0.6l-3.4,14.7c-0.1,0.5,0.3,0.9,0.8,0.9h3.8l-1.3,6h-4.2c-0.4,0-0.7,0.2-0.8,0.6l-3.4,14.7
	c-0.1,0.5,0.3,0.9,0.8,0.9h3.9l-1.3,6h-4.3c-0.4,0-0.7,0.2-0.8,0.6l-3.4,14.7c-0.1,0.5,0.3,0.9,0.8,0.9h4.1l-1.3,6h-4.2
	c-0.4,0-0.8,0.3-0.8,0.8c0,6,2.5,11.3,6.5,15.1c16.4,4.7,33.5,8.1,50.9,9.9c8.9,0.8,18.2,1.4,26.7,1.6c1.8,0,3.6,0.1,5.3,0.1
	c1.8,0,3.6,0,5.3-0.1C313.8,599.7,323.2,599.1,332,598.3"/>
</svg>
