<?xml version="1.0" encoding="utf-8"?>
<!-- Generator: Adobe Illustrator 21.0.0, SVG Export Plug-In . SVG Version: 6.00 Build 0)  -->
<svg version="1.1" id="Layer_1" xmlns="http://www.w3.org/2000/svg" xmlns:xlink="http://www.w3.org/1999/xlink" x="0px" y="0px"
	 viewBox="0 0 500 500" style="enable-background:new 0 0 500 500;" xml:space="preserve">
<style type="text/css">
	.st0{fill:#262626;}
	.st1{fill:#FF263B;}
</style>
<g>
	<path class="st0" d="M308.8,7.3c-0.2,0.7-0.3,1.4-0.4,2c-0.1,0.6-0.2,1.2-0.3,1.7c-0.1,0.5-0.2,1.1-0.2,1.6
		c-0.1,0.5-0.1,1.1-0.2,1.6c0,0.1,0,0.3,0,0.4l-6.2-13.8L297.3,0l-4,18.7l4.4,0.9l1.3-6.3c0.1-0.4,0.2-0.9,0.2-1.2
		c0.1-0.4,0.1-0.7,0.2-1.1c0.1-0.4,0.1-0.8,0.2-1.3c0.1-0.5,0.1-1,0.2-1.6c0-0.1,0-0.2,0-0.3l6.2,13.5l4.1,0.9l4-18.7l-4.4-0.9
		L308.8,7.3z"/>
	<path class="st0" d="M347.6,15.6c-0.7-0.9-1.7-1.5-2.8-2l-8-3.2l-7,17.8l4.1,1.6l2.5-6.3l2.2,0.9l1,7.6l4.9,1.9l-1.3-8.4
		c0.1,0,0.2,0,0.4,0c1.1-0.1,2.1-0.6,3-1.2c0.9-0.7,1.5-1.6,2-2.7c0.4-1.1,0.5-2.2,0.4-3.2C348.8,17.4,348.3,16.4,347.6,15.6z
		 M344.2,20.2c-0.2,0.5-0.4,0.8-0.7,1.1c-0.3,0.3-0.7,0.5-1.1,0.5c-0.4,0.1-0.8,0-1.3-0.2l-3.5-1.4l1.8-4.6l3.1,1.2
		c0.5,0.2,1,0.5,1.3,0.8c0.3,0.3,0.5,0.7,0.6,1.1C344.5,19.3,344.4,19.8,344.2,20.2z"/>
	<path class="st0" d="M381,31.2c-0.6-0.6-1.4-1.2-2.2-1.6c-1.3-0.7-2.6-1.2-3.9-1.3c-1.3-0.2-2.6-0.1-3.8,0.2
		c-1.2,0.3-2.3,0.9-3.4,1.7c-1,0.8-1.9,1.8-2.6,3c-0.7,1.3-1.2,2.5-1.3,3.8c-0.2,1.3-0.1,2.5,0.2,3.8c0.3,1.2,0.9,2.3,1.7,3.3
		c0.8,1,1.9,1.9,3.1,2.6c0.8,0.5,1.7,0.8,2.6,1.1c0.9,0.3,1.8,0.4,2.7,0.4c0.9,0,1.6-0.1,2.3-0.3l-0.2-4.2c-0.5,0.1-1,0.2-1.5,0.3
		c-0.5,0-1.1,0-1.6-0.1c-0.5-0.1-1.1-0.3-1.6-0.6c-0.7-0.4-1.4-0.9-1.8-1.5c-0.5-0.6-0.8-1.2-1-1.9c-0.2-0.7-0.2-1.4-0.1-2.1
		c0.1-0.7,0.4-1.5,0.8-2.2c0.4-0.7,0.9-1.4,1.5-1.8c0.6-0.5,1.2-0.8,1.9-1c0.7-0.2,1.3-0.2,2-0.1c0.7,0.1,1.4,0.3,2,0.7
		c0.5,0.3,0.9,0.6,1.3,1c0.4,0.4,0.7,0.8,0.9,1.3c0.2,0.5,0.4,1,0.5,1.5l4.1-1.4c-0.2-0.8-0.5-1.6-0.9-2.4
		C382.2,32.5,381.6,31.8,381,31.2z"/>
	<path class="st0" d="M430.1,69.2c-0.5-0.8-1.1-1.7-2-2.5c-0.7-0.7-1.4-1.2-2.3-1.6c-0.8-0.4-1.7-0.7-2.5-0.7
		c-0.8-0.1-1.7,0-2.4,0.2c-0.8,0.2-1.5,0.7-2.1,1.3c-0.6,0.6-1,1.2-1.2,1.8c-0.3,0.6-0.4,1.3-0.4,2c0,0.7,0.2,1.5,0.5,2.3
		c0.3,0.8,0.8,1.6,1.4,2.6c0.2,0.3,0.4,0.6,0.6,1c0.2,0.3,0.4,0.7,0.5,1c0.1,0.3,0.2,0.6,0.3,0.9c0.1,0.3,0.1,0.6,0,0.8
		c-0.1,0.3-0.2,0.5-0.4,0.7c-0.3,0.3-0.5,0.4-0.9,0.4c-0.3,0-0.7-0.1-1.1-0.2c-0.4-0.2-0.7-0.5-1.1-0.8c-0.7-0.7-1.2-1.5-1.6-2.4
		c-0.4-0.9-0.5-2.2-0.3-3.7l-4.2,0.3c-0.1,1-0.1,2,0.1,2.9c0.2,1,0.5,1.9,1,2.8c0.5,0.9,1.2,1.8,2.1,2.7c1,1,2.1,1.7,3.3,2.2
		c1.1,0.4,2.3,0.5,3.4,0.3c1.1-0.2,2.1-0.8,3-1.7c0.6-0.6,1-1.3,1.2-2c0.2-0.7,0.3-1.4,0.2-2.2c-0.1-0.8-0.3-1.5-0.7-2.3
		c-0.4-0.8-0.8-1.6-1.4-2.5c-0.3-0.4-0.5-0.7-0.7-1.1c-0.2-0.4-0.4-0.7-0.5-1.1c-0.1-0.3-0.1-0.7-0.1-0.9c0-0.3,0.1-0.5,0.4-0.8
		c0.2-0.2,0.5-0.4,0.9-0.4c0.3,0,0.7,0,1.1,0.2s0.8,0.5,1.2,0.8c0.4,0.4,0.7,0.8,0.9,1.3c0.2,0.5,0.4,1,0.5,1.5
		c0.1,0.5,0.1,1.1,0.1,1.7l4,0c0.2-0.8,0.2-1.6,0-2.4C430.9,70.8,430.6,70,430.1,69.2z"/>
	<polygon class="st0" points="446.8,87.4 443.5,89.9 447,94.4 435.1,103.6 437.9,107.3 449.8,98.1 453.4,102.7 456.6,100.2 	"/>
	<path class="st0" d="M474.3,128.7l-10.1,5.6c-0.6,0.3-1.2,0.5-1.9,0.5c-0.6,0-1.2-0.2-1.8-0.5c-0.5-0.3-1-0.8-1.3-1.4
		c-0.3-0.6-0.5-1.2-0.4-1.8c0-0.6,0.2-1.2,0.5-1.7c0.3-0.5,0.8-1,1.4-1.3l10.1-5.6l-2.3-4.1l-10.3,5.7c-1.3,0.7-2.2,1.6-2.9,2.8
		c-0.6,1.2-1,2.4-0.9,3.8c0,1.4,0.4,2.8,1.2,4.2c0.8,1.4,1.7,2.4,2.9,3.2c1.2,0.8,2.4,1.2,3.7,1.3c1.3,0.1,2.6-0.3,3.9-1l10.3-5.7
		L474.3,128.7z"/>
	<path class="st0" d="M478.9,168.8c0.9,0.7,1.8,1.1,2.9,1.3c1.1,0.2,2.2,0.1,3.4-0.4c1.1-0.4,2-1,2.7-1.9c0.7-0.8,1.1-1.8,1.3-2.9
		c0.2-1.1,0.1-2.2-0.3-3.3l-2.9-7.7l-17.9,6.6l1.6,4.4l6-2.2l1.3,3.4C477.4,167.2,478.1,168.1,478.9,168.8z M483.8,159.6l1.1,2.8
		c0.1,0.4,0.2,0.7,0.1,1.1c-0.1,0.4-0.2,0.7-0.4,1c-0.2,0.3-0.6,0.5-1,0.7c-0.4,0.2-0.8,0.2-1.2,0.1c-0.4-0.1-0.7-0.2-1-0.5
		c-0.3-0.2-0.5-0.5-0.7-0.9l-1.1-2.8L483.8,159.6z"/>
	<path class="st0" d="M497.8,192l-20.3-3.3l1,4.5l3.9,0.6l1.5,6.8l-3.3,2.1l1,4.6l17.1-11.4L497.8,192z M490.4,196.4
		c-0.4,0.2-0.8,0.5-1.1,0.7l-2.3,1.5l-0.9-4.3l2.7,0.4c0.5,0,0.9,0.1,1.4,0.2c0.5,0.1,0.9,0.1,1.4,0.2c0.4,0,0.8,0.1,1.2,0.1
		c-0.3,0.2-0.7,0.4-1.1,0.6C491.2,195.9,490.8,196.1,490.4,196.4z"/>
	<path class="st0" d="M3.7,255.8c0.7,0.3,1.6,0.4,2.4,0.4c0.9,0,1.7-0.2,2.4-0.5c0.7-0.3,1.4-0.7,1.9-1.3c0.5-0.6,1-1.2,1.2-1.9
		c0.3-0.7,0.4-1.6,0.4-2.4c0-0.9-0.2-1.7-0.5-2.4c-0.3-0.7-0.7-1.4-1.3-1.9c-0.6-0.5-1.2-1-1.9-1.2c-0.7-0.3-1.6-0.4-2.4-0.4
		c-0.9,0-1.7,0.2-2.4,0.5c-0.7,0.3-1.4,0.7-1.9,1.3c-0.5,0.6-1,1.2-1.2,1.9c-0.3,0.7-0.4,1.6-0.4,2.5c0,0.9,0.2,1.7,0.5,2.4
		c0.3,0.7,0.7,1.4,1.3,1.9C2.3,255.1,3,255.5,3.7,255.8z M2.9,249c0.2-0.4,0.4-0.7,0.7-1c0.3-0.3,0.7-0.5,1.1-0.7
		c0.4-0.2,0.9-0.2,1.4-0.2c0.5,0,0.9,0.1,1.4,0.2c0.4,0.1,0.8,0.4,1.1,0.6c0.3,0.3,0.6,0.6,0.7,1c0.2,0.4,0.3,0.8,0.3,1.3
		c0,0.5-0.1,0.9-0.2,1.3c-0.2,0.4-0.4,0.7-0.7,1c-0.3,0.3-0.7,0.5-1.1,0.7c-0.4,0.2-0.9,0.2-1.4,0.3c-0.5,0-0.9-0.1-1.4-0.2
		c-0.4-0.2-0.8-0.4-1.1-0.6c-0.3-0.3-0.6-0.6-0.7-1c-0.2-0.4-0.3-0.8-0.3-1.3C2.7,249.8,2.8,249.3,2.9,249z"/>
	<polygon class="st0" points="8.7,275.9 8.2,271.3 10.6,271.1 11.1,276.3 13.6,276.1 13.1,270.9 13.1,270.9 12.8,268 1.1,269.2 
		1.4,272 5.9,271.6 6.3,276.1 	"/>
	<path class="st0" d="M15.9,306.6c0.4,0.2,0.7,0.5,0.9,0.8c0.3,0.3,0.4,0.7,0.5,1.2c0.1,0.3,0.1,0.7,0.1,1c0,0.3-0.1,0.6-0.2,0.9
		c-0.1,0.3-0.3,0.6-0.4,0.9l2.4,1.2c0.3-0.4,0.5-0.9,0.7-1.4c0.2-0.5,0.2-1.1,0.3-1.6c0-0.6-0.1-1.1-0.2-1.6
		c-0.2-0.9-0.6-1.6-1.1-2.3c-0.5-0.7-1-1.2-1.7-1.6c-0.7-0.4-1.4-0.7-2.2-0.8c-0.8-0.1-1.6-0.1-2.5,0.1c-0.9,0.2-1.6,0.6-2.3,1
		c-0.6,0.5-1.2,1-1.6,1.7c-0.4,0.7-0.6,1.4-0.7,2.2c-0.1,0.8,0,1.6,0.2,2.5c0.1,0.6,0.3,1.1,0.6,1.6c0.3,0.5,0.6,1,0.9,1.3
		c0.4,0.4,0.7,0.7,1.1,0.9l1.8-1.9c-0.3-0.1-0.5-0.3-0.8-0.6c-0.2-0.2-0.4-0.5-0.6-0.8c-0.2-0.3-0.3-0.6-0.4-1
		c-0.1-0.5-0.2-1-0.1-1.4s0.2-0.9,0.4-1.2c0.2-0.4,0.5-0.7,0.9-1c0.4-0.3,0.8-0.5,1.3-0.6c0.5-0.1,1-0.2,1.4-0.1
		C15.1,306.3,15.5,306.4,15.9,306.6z"/>
	<path class="st0" d="M24.6,334.7c0.6-0.5,1.1-1.1,1.4-1.8c0.3-0.7,0.5-1.4,0.6-2.2c0-0.8-0.1-1.6-0.4-2.4c-0.3-0.8-0.7-1.5-1.2-2.1
		c-0.5-0.6-1.1-1.1-1.8-1.4c-0.7-0.3-1.4-0.5-2.2-0.6c-0.8,0-1.6,0.1-2.4,0.4c-0.8,0.3-1.5,0.7-2.1,1.2c-0.6,0.5-1.1,1.1-1.4,1.8
		c-0.3,0.7-0.5,1.4-0.6,2.2c0,0.8,0.1,1.6,0.4,2.5c0.3,0.8,0.7,1.5,1.2,2.1c0.5,0.6,1.1,1.1,1.8,1.4c0.7,0.3,1.4,0.5,2.2,0.5
		c0.8,0,1.6-0.1,2.4-0.4C23.3,335.6,24,335.2,24.6,334.7z M20.2,333.4c-0.4,0-0.9-0.1-1.2-0.3c-0.4-0.2-0.7-0.4-1-0.7
		c-0.3-0.3-0.5-0.7-0.7-1.1c-0.2-0.4-0.2-0.9-0.2-1.3c0-0.4,0.1-0.8,0.3-1.2c0.2-0.4,0.5-0.7,0.8-1c0.3-0.3,0.7-0.5,1.2-0.7
		c0.5-0.2,0.9-0.2,1.4-0.2c0.4,0,0.9,0.1,1.2,0.3c0.4,0.2,0.7,0.4,1,0.7c0.3,0.3,0.5,0.7,0.7,1.1c0.2,0.4,0.2,0.9,0.2,1.3
		c0,0.4-0.1,0.8-0.3,1.2c-0.2,0.4-0.5,0.7-0.8,1c-0.3,0.3-0.7,0.5-1.2,0.7C21.1,333.4,20.6,333.4,20.2,333.4z"/>
	<path class="st0" d="M36.5,353.3l-6.4-0.7l3.5-5.4l-1.1-2.3l-10.6,5l1.2,2.5l3.3-1.6c1-0.5,1.8-0.9,2.5-1.3
		c0.2-0.1,0.3-0.2,0.5-0.3l-2.6,4.2l0.5,1l5,0.7c-0.2,0.1-0.5,0.2-0.7,0.3c-0.7,0.3-1.6,0.7-2.5,1.1l-3.3,1.6l1.2,2.5l10.6-5
		L36.5,353.3z"/>
	<path class="st0" d="M46.2,374.8c0.3-0.6,0.5-1.2,0.5-1.9c0-0.7-0.2-1.3-0.6-1.9l-2.6-4.3l-10.1,6l1.5,2.4l3.4-2l1.1,1.9
		c0.4,0.6,0.9,1.1,1.5,1.4c0.6,0.3,1.2,0.5,1.9,0.5c0.7,0,1.4-0.2,2-0.6C45.4,375.9,45.9,375.4,46.2,374.8z M43.8,373.2
		c-0.1,0.2-0.3,0.4-0.5,0.5c-0.2,0.1-0.5,0.2-0.7,0.2c-0.2,0-0.5-0.1-0.7-0.2c-0.2-0.1-0.4-0.3-0.5-0.5l-0.9-1.6l2.4-1.4l1,1.6
		c0.1,0.2,0.2,0.4,0.2,0.7C44,372.8,43.9,373,43.8,373.2z"/>
	<polygon class="st0" points="54.6,384.2 45.1,391 49.8,397.6 51.8,396.1 48.8,391.9 56.3,386.5 	"/>
	<polygon class="st0" points="57.7,407.7 63.1,414 64.9,412.5 61.3,408.2 63.1,406.7 66.1,410.2 67.9,408.7 64.9,405.2 66.5,403.8 
		70.1,407.9 71.9,406.3 66.6,400.1 	"/>
	<polygon class="st0" points="77.8,416.5 80.3,418.9 73.9,425.5 75.9,427.5 82.3,420.9 84.9,423.4 86.6,421.6 79.5,414.7 	"/>
	<polygon class="st0" points="87.8,438.5 94.2,443.9 95.7,442 91.4,438.4 93,436.6 96.5,439.6 98,437.8 94.5,434.8 95.9,433.2 
		100,436.6 101.6,434.8 95.3,429.5 	"/>
	<path class="st0" d="M125.3,458.7c-0.4,0.3-0.7,0.5-1,0.8c-0.3,0.2-0.5,0.4-0.7,0.6c0,0,0,0,0,0c0-0.2,0.1-0.3,0.1-0.5
		c0.1-0.2,0.1-0.5,0.2-0.7c0.1-0.3,0.1-0.6,0.2-1l1.2-6.3l-2.5-1.5l-2.1,12.5l2,1.2l10.1-7.6l-2.5-1.5L125.3,458.7z"/>
	<polygon class="st0" points="141.3,463.6 143.1,464.5 140,470.7 138.2,469.8 137.2,472 143.3,475 144.3,472.9 142.6,472 
		145.7,465.8 147.4,466.7 148.5,464.5 142.4,461.5 	"/>
	<path class="st0" d="M166.2,472.1c-0.4-0.3-0.9-0.6-1.4-0.8c-0.8-0.3-1.7-0.5-2.5-0.5c-0.8,0-1.6,0.1-2.3,0.4
		c-0.7,0.3-1.4,0.7-1.9,1.3c-0.6,0.6-1,1.3-1.3,2.1c-0.3,0.8-0.5,1.6-0.5,2.4s0.2,1.6,0.5,2.3c0.3,0.7,0.8,1.3,1.3,1.9
		c0.6,0.6,1.3,1,2.1,1.3c0.5,0.2,1.1,0.4,1.7,0.4c0.6,0.1,1.1,0.1,1.6,0c0.5-0.1,1-0.2,1.3-0.4l-0.5-2.5c-0.3,0.1-0.6,0.2-0.9,0.3
		c-0.3,0.1-0.6,0.1-1,0c-0.3,0-0.7-0.1-1-0.2c-0.5-0.2-0.9-0.4-1.2-0.7c-0.3-0.3-0.6-0.7-0.8-1c-0.2-0.4-0.3-0.8-0.3-1.3
		c0-0.5,0.1-0.9,0.3-1.4c0.2-0.5,0.4-0.9,0.8-1.2c0.3-0.3,0.7-0.6,1-0.7c0.4-0.2,0.8-0.3,1.2-0.3c0.4,0,0.9,0.1,1.3,0.2
		c0.3,0.1,0.6,0.3,0.9,0.5c0.3,0.2,0.5,0.4,0.6,0.7c0.2,0.3,0.3,0.6,0.5,0.9l2.4-1.2c-0.2-0.5-0.4-0.9-0.7-1.4
		C167,472.8,166.6,472.5,166.2,472.1z"/>
	<polygon class="st0" points="177.9,479 181.3,480 178.6,488.9 181.3,489.7 184,480.8 187.4,481.9 188.1,479.5 178.7,476.6 	"/>
	<path class="st0" d="M208.2,485.6c-0.4-0.6-1-1.2-1.6-1.6c-0.7-0.4-1.4-0.8-2.3-0.9c-0.9-0.2-1.7-0.2-2.5,0
		c-0.8,0.1-1.5,0.4-2.1,0.9c-0.6,0.4-1.2,1-1.6,1.6s-0.8,1.4-0.9,2.3c-0.2,0.9-0.2,1.7,0,2.5c0.1,0.8,0.4,1.5,0.9,2.1
		c0.4,0.6,1,1.2,1.6,1.6c0.7,0.4,1.4,0.8,2.3,0.9c0.9,0.2,1.7,0.2,2.5,0c0.8-0.1,1.5-0.4,2.1-0.9c0.6-0.4,1.2-1,1.6-1.6
		c0.4-0.7,0.7-1.4,0.9-2.3c0.2-0.9,0.2-1.7,0.1-2.5C208.9,487,208.6,486.3,208.2,485.6z M206.1,489.6c-0.1,0.5-0.3,0.9-0.5,1.3
		c-0.2,0.4-0.5,0.7-0.9,0.9c-0.3,0.2-0.7,0.4-1.1,0.5c-0.4,0.1-0.8,0.1-1.3,0c-0.4-0.1-0.8-0.3-1.2-0.5c-0.3-0.2-0.6-0.5-0.9-0.9
		c-0.2-0.4-0.4-0.8-0.4-1.2c-0.1-0.4,0-0.9,0.1-1.4c0.1-0.5,0.3-0.9,0.5-1.3c0.2-0.4,0.5-0.7,0.9-0.9c0.3-0.2,0.7-0.4,1.1-0.5
		c0.4-0.1,0.8-0.1,1.3,0c0.4,0.1,0.8,0.3,1.2,0.5c0.3,0.2,0.6,0.5,0.8,0.9c0.2,0.4,0.4,0.8,0.4,1.2
		C206.2,488.7,206.2,489.2,206.1,489.6z"/>
	<path class="st0" d="M229.1,487.6c-0.6-0.4-1.2-0.6-2-0.7l-5.2-0.6l-1.3,11.7l2.7,0.3l0.5-4.1l1.5,0.2l1.8,4.4l3.2,0.4l-2.1-4.8
		c0.1,0,0.1,0,0.2-0.1c0.6-0.3,1.2-0.7,1.6-1.2c0.4-0.5,0.7-1.2,0.7-1.9c0.1-0.7,0-1.4-0.3-2C230.1,488.5,229.7,488,229.1,487.6z
		 M224.3,489l2,0.2c0.4,0,0.7,0.1,0.9,0.3c0.2,0.2,0.4,0.3,0.5,0.6c0.1,0.2,0.1,0.5,0.1,0.8c0,0.3-0.1,0.6-0.3,0.8
		c-0.1,0.2-0.3,0.4-0.6,0.5c-0.2,0.1-0.5,0.1-0.8,0.1L224,492L224.3,489z"/>
	<polygon class="st0" points="249.5,488.3 246.8,492.3 244.1,488.2 240.8,488.1 245.3,494.7 245.1,499.9 248,500 248.1,494.8 
		252.6,488.4 	"/>
</g>
<path class="st1" d="M464.2,250c0,117.3-95.1,212.3-212.3,212.3c-117.3,0-212.3-95.1-212.3-212.3S134.6,37.7,251.9,37.7
	C369.1,37.7,464.2,132.7,464.2,250"/>
<path class="st0" d="M274.5,461.1c12.4-1.3,24.4-3.7,36-7c2.8-2.7,4.6-6.5,4.6-10.7c0-0.3-0.2-0.5-0.5-0.5h-3l-0.9-4.2h3
	c0.4,0,0.6-0.3,0.5-0.7l-2.4-10.4c-0.1-0.2-0.3-0.4-0.5-0.4h-3.2l-0.9-4.2h2.9c0.3,0,0.6-0.3,0.5-0.7l-2.4-10.4
	c-0.1-0.2-0.3-0.4-0.5-0.4h-3.1l-0.9-4.2h2.8c0.3,0,0.6-0.3,0.5-0.7l-2.4-10.4c-0.1-0.2-0.3-0.4-0.5-0.4h-3l-0.9-4.2h2.7
	c0.3,0,0.6-0.3,0.5-0.7l-2.4-10.4c-0.1-0.2-0.3-0.4-0.5-0.4h-2.9l-0.9-4.2h2.6c0.3,0,0.6-0.3,0.5-0.7l-2.4-10.4
	c-0.1-0.2-0.3-0.4-0.5-0.4h-2.8l-0.9-4.2h2.5c0.3,0,0.6-0.3,0.5-0.7l-2.4-10.4c-0.1-0.2-0.3-0.4-0.5-0.4h-2.7l-0.9-4.2h2.4
	c0.3,0,0.6-0.3,0.5-0.7l-2.4-10.4c-0.1-0.2-0.3-0.4-0.5-0.4h-2.6l-0.9-4.2h2.3c0.3,0,0.6-0.3,0.5-0.7l-2.4-10.4
	c-0.1-0.2-0.3-0.4-0.5-0.4h-2.4l-0.9-4.2h2.2c0.3,0,0.6-0.3,0.5-0.7l-2.4-10.4c-0.1-0.2-0.3-0.4-0.5-0.4h-2.3l-0.9-4.2h2.1
	c0.3,0,0.6-0.3,0.5-0.7l-2.4-10.4c-0.1-0.2-0.3-0.4-0.5-0.4h-2.2l-0.9-4.2h2c0.3,0,0.6-0.3,0.5-0.7l-2.4-10.4
	c-0.1-0.2-0.3-0.4-0.5-0.4h-2.1l-0.9-4.2h1.9c0.4,0,0.6-0.3,0.5-0.7l-0.7-3.3h32.1c0.2,0,0.3-0.3,0.2-0.5l-22.4-30.2v-8.5h-0.2
	c0.1,0,0.2,0,0.2-0.1l15.4-23.8c0.1-0.2,0-0.4-0.2-0.4h-23.5c5.5-5.8,8.9-13.6,8.9-22.2c0-2.3-0.3-4.6-0.8-6.8
	c-0.1-0.3-0.4-0.3-0.5,0c-2.3,8-7.6,14.8-14.6,19c4.9-4.5,8-10.9,8-18.1c0-13-10-23.6-22.8-24.5c5.1-0.9,9-5.3,9-10.6
	c0-5.9-8.1-20.1-10.8-20.1c-2.7,0-10.8,14.1-10.8,20.1c0,5.3,3.9,9.8,9,10.6c-12.7,0.9-22.8,11.5-22.8,24.5c0,7.2,3.1,13.6,8,18.1
	c-7-4.2-12.3-11-14.6-19c-0.1-0.3-0.4-0.3-0.5,0c-0.5,2.2-0.8,4.5-0.8,6.8c0,8.6,3.4,16.4,8.9,22.2h-23.5c-0.2,0-0.3,0.2-0.2,0.4
	l15.4,23.8c0,0.1,0.1,0.1,0.2,0.1H220v8.5l-22.4,30.2c-0.1,0.2,0,0.5,0.2,0.5h32.1l-0.7,3.3c-0.1,0.3,0.2,0.7,0.5,0.7h1.8l-0.9,4.2
	h-2.1c-0.3,0-0.5,0.2-0.5,0.4l-2.4,10.4c-0.1,0.3,0.2,0.7,0.5,0.7h1.9l-0.9,4.2h-2.2c-0.3,0-0.5,0.2-0.5,0.4l-2.4,10.4
	c-0.1,0.3,0.2,0.7,0.5,0.7h2l-0.9,4.2h-2.3c-0.3,0-0.5,0.2-0.5,0.4l-2.4,10.4c-0.1,0.3,0.2,0.7,0.5,0.7h2.1l-0.9,4.2h-2.4
	c-0.3,0-0.5,0.2-0.5,0.4l-2.4,10.4c-0.1,0.3,0.2,0.7,0.5,0.7h2.2l-0.9,4.2h-2.5c-0.3,0-0.5,0.2-0.5,0.4l-2.4,10.4
	c-0.1,0.3,0.2,0.7,0.5,0.7h2.3l-0.9,4.2h-2.6c-0.3,0-0.5,0.2-0.5,0.4l-2.4,10.4c-0.1,0.3,0.2,0.7,0.5,0.7h2.4l-0.9,4.2h-2.7
	c-0.3,0-0.5,0.2-0.5,0.4l-2.4,10.4c-0.1,0.3,0.2,0.7,0.5,0.7h2.5l-0.9,4.2h-2.8c-0.3,0-0.5,0.2-0.5,0.4l-2.4,10.4
	c-0.1,0.3,0.2,0.7,0.5,0.7h2.6l-0.9,4.2h-2.9c-0.3,0-0.5,0.2-0.5,0.4l-2.4,10.4c-0.1,0.3,0.2,0.7,0.5,0.7h2.7l-0.9,4.2h-3
	c-0.3,0-0.5,0.2-0.5,0.4l-2.4,10.4c-0.1,0.3,0.2,0.7,0.5,0.7h2.8l-0.9,4.2h-3.1c-0.3,0-0.5,0.2-0.5,0.4l-2.4,10.4
	c-0.1,0.3,0.2,0.7,0.5,0.7h2.9l-0.9,4.2h-2.9c-0.3,0-0.5,0.2-0.5,0.5c0,4.2,1.8,8,4.6,10.7c11.6,3.3,23.7,5.7,36,7
	c6.3,0.6,12.9,1,18.9,1.2c1.3,0,2.5,0,3.8,0c1.3,0,2.5,0,3.8,0C261.6,462.1,268.2,461.7,274.5,461.1"/>
</svg>
